<svg xmlns="http://www.w3.org/2000/svg" width="38.253" height="38.253" viewBox="0 0 38.253 38.253">
  <defs>
    <style>
      .cls-1 {
        fill: #fff;
      }
    </style>
  </defs>
  <path id="Medium" class="cls-1" d="M19.126,0A19.126,19.126,0,1,1,0,19.126,19.126,19.126,0,0,1,19.126,0ZM9.934,13.465V24.113a1.225,1.225,0,0,1-.326,1.057L7.077,28.24v.4h7.178v-.4l-2.531-3.07a1.275,1.275,0,0,1-.349-1.057V14.9l6.3,13.74h.731L23.818,14.9V25.856c0,.292,0,.349-.191.54l-1.95,1.889v.4h9.457v-.4l-1.879-1.844a.562.562,0,0,1-.213-.54V12.351a.562.562,0,0,1,.213-.54l1.921-1.844v-.4h-6.66L19.764,21.4l-5.4-11.84H7.381v.4l2.251,2.71a.933.933,0,0,1,.3.787Z"/>
</svg>
