<svg xmlns="http://www.w3.org/2000/svg" width="38.359" height="29.226" viewBox="0 0 38.359 29.226">
  <defs>
    <style>
      .cls-1 {
        fill: #fff;
      }
    </style>
  </defs>
  <path id="Discord" class="cls-1" d="M84.523,66.467a.1.1,0,0,0-.05-.046A31.644,31.644,0,0,0,76.665,64a.118.118,0,0,0-.125.059,22.013,22.013,0,0,0-.972,2,29.216,29.216,0,0,0-8.77,0,20.2,20.2,0,0,0-.987-2A.123.123,0,0,0,65.685,64a31.554,31.554,0,0,0-7.808,2.421.112.112,0,0,0-.051.044A32.351,32.351,0,0,0,52.159,88.29a.131.131,0,0,0,.05.09,31.814,31.814,0,0,0,9.578,4.84.124.124,0,0,0,.135-.044,22.716,22.716,0,0,0,1.96-3.186.121.121,0,0,0-.066-.169,20.952,20.952,0,0,1-2.992-1.426.123.123,0,0,1-.012-.2q.3-.226.594-.466a.119.119,0,0,1,.124-.017,22.693,22.693,0,0,0,19.278,0,.118.118,0,0,1,.126.015q.292.241.6.467a.123.123,0,0,1-.011.2,19.663,19.663,0,0,1-2.994,1.424.122.122,0,0,0-.065.17,25.511,25.511,0,0,0,1.958,3.185.122.122,0,0,0,.135.046,31.708,31.708,0,0,0,9.594-4.84.123.123,0,0,0,.05-.088A32.137,32.137,0,0,0,84.523,66.467Zm-19.7,17.467a3.89,3.89,0,0,1,0-7.729,3.89,3.89,0,0,1,0,7.729Zm12.746,0a3.89,3.89,0,0,1,0-7.729,3.89,3.89,0,0,1,0,7.729Z" transform="translate(-52 -63.999)"/>
</svg>
