<svg xmlns="http://www.w3.org/2000/svg" width="40.353" height="33.232" viewBox="0 0 40.353 33.232">
  <defs>
    <style>
      .cls-1 {
        fill: #fff;
      }
    </style>
  </defs>
  <path id="tww_icon" class="cls-1" d="M52.017,100.552c0,14.37-9.44,24.718-23.323,25.172A18.648,18.648,0,0,1,15.2,121.7c4.022.454,9.44-.876,12.1-3.6-4.022,0-6.293-2.271-7.623-5.352h3.6c-3.6-1.362-6.325-4.055-6.325-8.531a6.845,6.845,0,0,0,3.6.876c-3.147-1.784-4.931-7.623-2.692-11.224,4.022,4.476,8.953,8.531,17.095,8.953-2.271-8.953,9.44-13.494,14.37-7.623a17.417,17.417,0,0,0,5.352-2.271,6.041,6.041,0,0,1-3.6,4.476,7.678,7.678,0,0,0,4.476-1.33,8.739,8.739,0,0,1-3.536,4.476Z" transform="translate(-15.2 -92.562)"/>
</svg>
